<svg width="1440" height="1024" viewBox="0 0 1440 1024" fill="none" xmlns="http://www.w3.org/2000/svg">
<g clip-path="url(#clip0)">
<rect width="1440" height="1024" fill="#FF6666" fill-opacity="0.9"/>
<rect width="1440" height="1024" fill="url(#paint0_linear)"/>
<path fill-rule="evenodd" clip-rule="evenodd" d="M0 821.945L47.6923 770.593C95.3846 719.241 192.308 614.704 287.692 607.368C384.615 598.198 480 684.395 575.385 744.917C672.308 803.605 767.692 838.451 864.615 838.451C960 838.451 1055.38 803.605 1152.31 744.917C1247.69 684.395 1344.62 598.198 1392.31 556.016L1440 512V976H1392.31C1344.62 976 1247.69 976 1152.31 976C1055.38 976 960 976 864.615 976C767.692 976 672.308 976 575.385 976C480 976 384.615 976 287.692 976C192.308 976 95.3846 976 47.6923 976H0V821.945Z" fill="#C3305D"/>
<path fill-rule="evenodd" clip-rule="evenodd" d="M0 857.265L47.6923 807.02C95.3846 756.775 192.308 654.49 287.692 647.312C384.615 638.34 480 722.68 575.385 781.897C672.308 839.32 767.692 873.415 864.615 873.415C960 873.415 1055.38 839.32 1152.31 781.897C1247.69 722.68 1344.62 638.34 1392.31 597.067L1440 554V1008H1392.31C1344.62 1008 1247.69 1008 1152.31 1008C1055.38 1008 960 1008 864.615 1008C767.692 1008 672.308 1008 575.385 1008C480 1008 384.615 1008 287.692 1008C192.308 1008 95.3846 1008 47.6923 1008H0V857.265Z" fill="#FDCD83"/>
<path fill-rule="evenodd" clip-rule="evenodd" d="M0 896.601L47.6923 846.134C95.3846 795.668 192.308 692.933 287.692 685.723C384.615 676.711 480 761.423 575.385 820.901C672.308 878.577 767.692 912.822 864.615 912.822C960 912.822 1055.38 878.577 1152.31 820.901C1247.69 761.423 1344.62 676.711 1392.31 635.257L1440 592V1048H1392.31C1344.62 1048 1247.69 1048 1152.31 1048C1055.38 1048 960 1048 864.615 1048C767.692 1048 672.308 1048 575.385 1048C480 1048 384.615 1048 287.692 1048C192.308 1048 95.3846 1048 47.6923 1048H0V896.601Z" fill="white"/>
</g>
<defs>
<linearGradient id="paint0_linear" x1="720" y1="0" x2="720" y2="1024" gradientUnits="userSpaceOnUse">
<stop stop-color="#FF6666"/>
<stop offset="0.341667" stop-color="#F7C9C9" stop-opacity="0.273632"/>
<stop offset="0.628125" stop-color="white" stop-opacity="0"/>
</linearGradient>
<clipPath id="clip0">
<rect width="1440" height="1024" fill="white"/>
</clipPath>
</defs>
</svg>
