<svg width="48" height="48" viewBox="0 0 48 48" fill="none" xmlns="http://www.w3.org/2000/svg">
<path fill-rule="evenodd" clip-rule="evenodd" d="M0.416687 9.81666C0.416687 7.32362 1.40704 4.93269 3.16988 3.16985C4.93273 1.40701 7.32365 0.416656 9.81669 0.416656H38.0167C40.5097 0.416656 42.9006 1.40701 44.6635 3.16985C46.4263 4.93269 47.4167 7.32362 47.4167 9.81666V38.0167C47.4167 40.5097 46.4263 42.9006 44.6635 44.6635C42.9006 46.4263 40.5097 47.4167 38.0167 47.4167H9.81669C7.32365 47.4167 4.93273 46.4263 3.16988 44.6635C1.40704 42.9006 0.416687 40.5097 0.416687 38.0167V9.81666ZM9.81669 5.11666C8.57017 5.11666 7.37471 5.61183 6.49328 6.49325C5.61186 7.37468 5.11669 8.57014 5.11669 9.81666V38.0167C5.11669 39.2632 5.61186 40.4586 6.49328 41.3401C7.37471 42.2215 8.57017 42.7167 9.81669 42.7167H23.9167V26.2667H21.5667C20.9434 26.2667 20.3457 26.0191 19.905 25.5784C19.4643 25.1376 19.2167 24.5399 19.2167 23.9167C19.2167 23.2934 19.4643 22.6957 19.905 22.255C20.3457 21.8142 20.9434 21.5667 21.5667 21.5667H23.9167V18.0417C23.9167 15.8603 24.7832 13.7682 26.3257 12.2257C27.8682 10.6832 29.9603 9.81666 32.1417 9.81666H33.5517C34.1749 9.81666 34.7727 10.0642 35.2134 10.505C35.6541 10.9457 35.9017 11.5434 35.9017 12.1667C35.9017 12.7899 35.6541 13.3876 35.2134 13.8284C34.7727 14.2691 34.1749 14.5167 33.5517 14.5167H32.1417C31.6788 14.5167 31.2204 14.6078 30.7927 14.785C30.3651 14.9621 29.9765 15.2218 29.6491 15.5491C29.3218 15.8764 29.0622 16.265 28.885 16.6927C28.7079 17.1204 28.6167 17.5787 28.6167 18.0417V21.5667H33.5517C34.1749 21.5667 34.7727 21.8142 35.2134 22.255C35.6541 22.6957 35.9017 23.2934 35.9017 23.9167C35.9017 24.5399 35.6541 25.1376 35.2134 25.5784C34.7727 26.0191 34.1749 26.2667 33.5517 26.2667H28.6167V42.7167H38.0167C39.2632 42.7167 40.4587 42.2215 41.3401 41.3401C42.2215 40.4586 42.7167 39.2632 42.7167 38.0167V9.81666C42.7167 8.57014 42.2215 7.37468 41.3401 6.49325C40.4587 5.61183 39.2632 5.11666 38.0167 5.11666H9.81669Z" fill="white"/>
</svg>
