<svg width="47" height="47" viewBox="0 0 47 47" fill="none" xmlns="http://www.w3.org/2000/svg">
<path fill-rule="evenodd" clip-rule="evenodd" d="M0 9.4C0 6.90696 0.990354 4.51604 2.7532 2.7532C4.51604 0.990354 6.90696 0 9.4 0H37.6C40.093 0 42.484 0.990354 44.2468 2.7532C46.0096 4.51604 47 6.90696 47 9.4V37.6C47 40.093 46.0096 42.484 44.2468 44.2468C42.484 46.0096 40.093 47 37.6 47H9.4C6.90696 47 4.51604 46.0096 2.7532 44.2468C0.990354 42.484 0 40.093 0 37.6V9.4ZM9.4 4.7C8.15348 4.7 6.95802 5.19518 6.0766 6.0766C5.19518 6.95802 4.7 8.15348 4.7 9.4V37.6C4.7 38.8465 5.19518 40.042 6.0766 40.9234C6.95802 41.8048 8.15348 42.3 9.4 42.3H37.6C38.8465 42.3 40.042 41.8048 40.9234 40.9234C41.8048 40.042 42.3 38.8465 42.3 37.6V9.4C42.3 8.15348 41.8048 6.95802 40.9234 6.0766C40.042 5.19518 38.8465 4.7 37.6 4.7H9.4ZM23.5 16.45C21.6302 16.45 19.837 17.1928 18.5149 18.5149C17.1928 19.837 16.45 21.6302 16.45 23.5C16.45 25.3698 17.1928 27.163 18.5149 28.4851C19.837 29.8072 21.6302 30.55 23.5 30.55C25.3698 30.55 27.163 29.8072 28.4851 28.4851C29.8072 27.163 30.55 25.3698 30.55 23.5C30.55 21.6302 29.8072 19.837 28.4851 18.5149C27.163 17.1928 25.3698 16.45 23.5 16.45ZM11.75 23.5C11.75 20.3837 12.9879 17.395 15.1915 15.1915C17.395 12.9879 20.3837 11.75 23.5 11.75C26.6163 11.75 29.605 12.9879 31.8085 15.1915C34.0121 17.395 35.25 20.3837 35.25 23.5C35.25 26.6163 34.0121 29.605 31.8085 31.8085C29.605 34.0121 26.6163 35.25 23.5 35.25C20.3837 35.25 17.395 34.0121 15.1915 31.8085C12.9879 29.605 11.75 26.6163 11.75 23.5ZM36.425 14.1C37.3599 14.1 38.2565 13.7286 38.9175 13.0676C39.5786 12.4065 39.95 11.5099 39.95 10.575C39.95 9.64011 39.5786 8.74351 38.9175 8.08245C38.2565 7.42138 37.3599 7.05 36.425 7.05C35.4901 7.05 34.5935 7.42138 33.9324 8.08245C33.2714 8.74351 32.9 9.64011 32.9 10.575C32.9 11.5099 33.2714 12.4065 33.9324 13.0676C34.5935 13.7286 35.4901 14.1 36.425 14.1Z" fill="white"/>
</svg>
