<svg width="39" height="43" viewBox="0 0 39 43" fill="none" xmlns="http://www.w3.org/2000/svg">
<path fill-rule="evenodd" clip-rule="evenodd" d="M10.194 4.97041C12.5088 2.22091 15.787 0.916656 19.5 0.916656C23.2992 0.916656 26.5578 2.45199 28.8295 5.25045C30.8466 7.73753 31.9883 11.0941 32.1959 14.9971L32.3761 15.0245L32.4152 15.0304C32.7481 15.0774 33.1457 15.1361 33.5589 15.2164C35.0884 15.5121 37.6988 16.2602 38.5977 19.0626C39.0481 20.4706 38.8229 21.7749 38.0337 22.8089C37.3541 23.6999 36.3828 24.2149 35.6876 24.5263C35.3429 24.683 34.9983 24.8162 34.7084 24.9278C35.386 26.7608 36.5649 28.6467 37.8692 30.3543C39.0971 31.9641 38.772 34.0027 38.1375 35.3324C37.501 36.6641 36.1263 38.1857 34.1249 38.2719C32.9929 38.3208 31.8042 38.4383 30.6214 38.6537C30.0868 38.7517 29.4562 38.9651 28.6728 39.2882C28.2048 39.4802 27.7759 39.6721 27.3138 39.8777C26.9456 40.0422 26.5578 40.2145 26.1094 40.4064C24.2686 41.1976 22.0067 42.0417 19.5 42.0417C16.9933 42.0417 14.7315 41.1976 12.8906 40.4064C12.4422 40.2145 12.0525 40.0422 11.6863 39.8777C11.236 39.6749 10.7829 39.4784 10.3272 39.2882C9.54385 38.9651 8.91326 38.7497 8.37864 38.6518C7.19581 38.4364 6.0071 38.3208 4.87322 38.2719C2.87376 38.1857 1.49706 36.6641 0.862556 35.3324C0.228056 34.0027 -0.0970274 31.9641 1.13085 30.3543C2.44293 28.6349 3.62772 26.7353 4.30335 24.8906C4.00689 24.774 3.71368 24.6492 3.42406 24.5165C2.74647 24.1993 1.82606 23.6921 1.14651 22.8422C0.38864 21.8904 0.0537643 20.6625 0.351431 19.2564C0.985931 16.2465 3.81768 15.4964 5.31385 15.2144C5.73881 15.1361 6.15201 15.0774 6.49864 15.0284L6.56718 15.0186L6.80218 14.9853C6.99606 10.8239 8.12993 7.42028 10.194 4.97041ZM13.1903 7.49274C11.6961 9.26503 10.6875 12.1144 10.6875 16.3052V16.5089L10.6444 16.7106C10.4271 17.7368 9.63785 18.2166 9.24618 18.4007C8.83493 18.5945 8.39039 18.6905 8.07706 18.7492C7.77156 18.806 7.43081 18.853 7.12726 18.8942L7.03718 18.9079C6.70242 18.9522 6.36875 19.0044 6.03647 19.0645C4.53835 19.3446 4.25439 19.7167 4.18193 20.0633C4.13101 20.312 4.17606 20.3629 4.20151 20.3903L4.20935 20.3982C4.31314 20.5294 4.56381 20.7252 5.08472 20.968C5.32756 21.0816 5.5841 21.1854 5.86806 21.3009L5.93856 21.3284C6.18726 21.4263 6.48297 21.5457 6.74343 21.6691C6.99997 21.7866 7.42885 22.002 7.7931 22.3506C8.2161 22.756 8.72722 23.5472 8.47851 24.5909C7.76568 27.5892 5.96597 30.4757 4.24656 32.7278C4.22039 32.7937 4.20968 32.8647 4.21522 32.9354C4.21522 33.1214 4.2681 33.376 4.39539 33.6443C4.52464 33.9126 4.68914 34.1182 4.84189 34.2416C4.96722 34.3434 5.03772 34.3591 5.04556 34.3591C6.32043 34.4139 7.68931 34.5471 9.07972 34.7997C10.0256 34.9721 10.9597 35.3128 11.8214 35.6692C12.2973 35.8651 12.8436 36.1079 13.3743 36.3429C13.7445 36.5074 14.1068 36.668 14.4318 36.807C16.1924 37.561 17.8354 38.125 19.5 38.125C21.1646 38.125 22.8096 37.561 24.5682 36.807C24.8933 36.668 25.2556 36.5054 25.6257 36.3429C26.1544 36.1079 26.7028 35.8651 27.1767 35.6692C28.0383 35.3128 28.9725 34.9721 29.9183 34.7997C31.3088 34.5452 32.6796 34.4139 33.9525 34.3591C33.9643 34.3591 34.0328 34.3434 34.1581 34.2416C34.3475 34.0763 34.4997 33.8727 34.6046 33.6443C34.7145 33.4235 34.7759 33.1818 34.7848 32.9354C34.7848 32.7533 34.7398 32.7102 34.7554 32.7317C33.036 30.4797 31.2344 27.5911 30.5196 24.5909C30.2552 23.4747 30.8603 22.6718 31.2774 22.2997C31.6495 21.9707 32.0843 21.7651 32.3486 21.6495C32.613 21.532 32.9107 21.4204 33.1653 21.3244L33.2593 21.2872C33.5589 21.1756 33.8272 21.0718 34.0798 20.9563C34.6086 20.7193 34.8338 20.5372 34.9101 20.4452C34.9032 20.3818 34.8895 20.3194 34.869 20.2591C34.6908 19.7029 34.1875 19.3269 32.8128 19.0606C32.5014 19.0019 32.1861 18.9549 31.8532 18.9039L31.7788 18.8942C31.4688 18.8521 31.16 18.8024 30.8525 18.7453C30.4536 18.6754 30.0657 18.5529 29.699 18.3811C29.2878 18.1774 28.5632 17.6898 28.3556 16.7106L28.3125 16.5089V16.3033C28.3125 12.4845 27.3196 9.60578 25.7882 7.71991C24.2901 5.87124 22.1653 4.83332 19.5 4.83332C16.7486 4.83332 14.6433 5.76549 13.1883 7.49274H13.1903Z" fill="white"/>
</svg>
