<svg width="1920" height="186" viewBox="0 0 1920 186" fill="none" xmlns="http://www.w3.org/2000/svg">
<path fill-rule="evenodd" clip-rule="evenodd" d="M0 114.277L107.2 134.71C212.8 155.143 427.2 196.009 640 183.749C852.8 171.489 1067.2 106.104 1280 85.6715C1492.8 65.2387 1707.2 89.7581 1812.8 102.018L1920 114.277V16.2H1812.8C1707.2 16.2 1492.8 16.2 1280 16.2C1067.2 16.2 852.8 16.2 640 16.2C427.2 16.2 212.8 16.2 107.2 16.2H0V114.277Z" fill="#C3305D"/>
<path fill-rule="evenodd" clip-rule="evenodd" d="M0 98.0774L107.2 118.51C212.8 138.943 427.2 179.809 640 167.549C852.8 155.289 1067.2 89.9043 1280 69.4715C1492.8 49.0387 1707.2 73.5581 1812.8 85.8177L1920 98.0774V0H1812.8C1707.2 0 1492.8 0 1280 0C1067.2 0 852.8 0 640 0C427.2 0 212.8 0 107.2 0H0V98.0774Z" fill="#FDCD83"/>
</svg>
