<svg width="1440" height="396" viewBox="0 0 1440 396" fill="none" xmlns="http://www.w3.org/2000/svg">
<path fill-rule="evenodd" clip-rule="evenodd" d="M0 228.989L47.6923 191.05C95.3846 153.111 192.308 75.878 287.692 70.4581C384.615 63.6833 480 127.367 575.385 172.08C672.308 215.439 767.692 241.184 864.615 241.184C960 241.184 1055.38 215.439 1152.31 172.08C1247.69 127.367 1344.62 63.6833 1392.31 32.5191L1440 0V342.806H1392.31C1344.62 342.806 1247.69 342.806 1152.31 342.806C1055.38 342.806 960 342.806 864.615 342.806C767.692 342.806 672.308 342.806 575.385 342.806C480 342.806 384.615 342.806 287.692 342.806C192.308 342.806 95.3846 342.806 47.6923 342.806H0V228.989Z" fill="#C3305D"/>
<path fill-rule="evenodd" clip-rule="evenodd" d="M0 255.084L47.6923 217.962C95.3846 180.841 192.308 105.273 287.692 99.9695C384.615 93.3407 480 155.652 575.385 199.402C672.308 241.826 767.692 267.016 864.615 267.016C960 267.016 1055.38 241.826 1152.31 199.402C1247.69 155.652 1344.62 93.3407 1392.31 62.8481L1440 31.0298V366.448H1392.31C1344.62 366.448 1247.69 366.448 1152.31 366.448C1055.38 366.448 960 366.448 864.615 366.448C767.692 366.448 672.308 366.448 575.385 366.448C480 366.448 384.615 366.448 287.692 366.448C192.308 366.448 95.3846 366.448 47.6923 366.448H0V255.084Z" fill="#FDCD83"/>
<path fill-rule="evenodd" clip-rule="evenodd" d="M0 284.145L47.6923 246.86C95.3846 209.576 192.308 133.674 287.692 128.348C384.615 121.69 480 184.275 575.385 228.218C672.308 270.829 767.692 296.13 864.615 296.13C960 296.13 1055.38 270.829 1152.31 228.218C1247.69 184.275 1344.62 121.69 1392.31 91.0629L1440 59.1045V396H1392.31C1344.62 396 1247.69 396 1152.31 396C1055.38 396 960 396 864.615 396C767.692 396 672.308 396 575.385 396C480 396 384.615 396 287.692 396C192.308 396 95.3846 396 47.6923 396H0V284.145Z" fill="white"/>
</svg>
